<?xml version="1.0" encoding="UTF-8"?>
<!-- Generator: visioncortex VTracer 0.6.5 -->
<svg version="1.1" xmlns="http://www.w3.org/2000/svg" width="1024" height="1024">
<path d="M0,0 L18,0 L53,2 L69,4 L70,5 L99,10 L105,12 L117,15 L125,18 L135,21 L145,25 L149,26 L149,28 L157,30 L175,38 L176,39 L176,47 L173,59 L170,79 L169,81 L168,86 L164,112 L163,114 L163,119 L161,126 L158,146 L157,147 L153,174 L152,176 L151,181 L149,195 L142,203 L132,213 L131,216 L123,223 L118,228 L114,234 L109,239 L104,244 L100,246 L98,250 L91,258 L79,270 L72,278 L60,290 L53,298 L43,308 L41,308 L42,293 L44,293 L45,280 L48,259 L50,259 L51,245 L53,231 L55,231 L54,224 L56,224 L57,211 L59,196 L60,195 L64,168 L65,166 L65,161 L67,154 L70,134 L72,127 L76,101 L78,101 L78,94 L68,93 L57,91 L56,90 L29,87 L-23,87 L-43,89 L-51,89 L-51,91 L-74,95 L-82,98 L-94,101 L-98,101 L-98,103 L-111,107 L-120,111 L-126,112 L-126,114 L-133,117 L-136,117 L-136,119 L-146,123 L-148,123 L-148,125 L-156,129 L-159,129 L-159,131 L-168,136 L-175,140 L-176,142 L-183,146 L-189,151 L-192,151 L-194,155 L-198,157 L-200,160 L-205,163 L-221,178 L-235,192 L-242,200 L-244,204 L-249,208 L-251,212 L-254,215 L-260,223 L-261,226 L-263,228 L-268,235 L-270,235 L-271,239 L-274,246 L-276,246 L-278,252 L-282,258 L-287,268 L-294,283 L-296,289 L-298,289 L-301,301 L-305,311 L-307,318 L-309,318 L-310,327 L-313,341 L-315,341 L-316,353 L-318,367 L-319,368 L-319,376 L-320,377 L-321,390 L-321,439 L-320,452 L-319,453 L-319,461 L-318,462 L-315,484 L-315,489 L-313,489 L-309,507 L-308,509 L-309,511 L-307,511 L-303,525 L-299,535 L-295,545 L-291,554 L-292,556 L-290,556 L-282,573 L-276,583 L-276,585 L-274,586 L-270,594 L-266,598 L-262,605 L-259,609 L-259,611 L-256,612 L-250,621 L-238,635 L-231,642 L-231,645 L-227,646 L-209,664 L-202,670 L-199,671 L-196,675 L-193,676 L-191,679 L-186,682 L-186,684 L-182,685 L-176,688 L-175,690 L-168,694 L-162,698 L-159,699 L-159,701 L-155,702 L-144,708 L-135,713 L-127,716 L-118,720 L-114,721 L-114,723 L-104,725 L-97,727 L-97,729 L-86,731 L-73,735 L-57,738 L-51,740 L-22,743 L28,743 L57,740 L79,735 L101,729 L107,726 L120,722 L129,718 L138,714 L155,705 L164,700 L173,695 L175,695 L176,692 L181,689 L188,684 L191,684 L192,681 L197,678 L198,676 L203,673 L215,663 L220,658 L225,653 L230,648 L235,643 L240,639 L244,634 L246,634 L247,630 L256,620 L260,613 L263,611 L266,606 L268,606 L269,602 L272,596 L274,595 L279,586 L283,579 L285,579 L286,574 L289,568 L291,568 L294,557 L295,555 L297,555 L298,550 L300,545 L302,545 L303,539 L309,523 L312,512 L314,507 L317,493 L319,488 L322,471 L323,469 L323,463 L324,462 L326,443 L326,386 L324,368 L323,367 L323,360 L321,353 L319,342 L319,336 L317,336 L313,319 L310,312 L308,305 L308,301 L306,300 L301,287 L298,282 L295,274 L291,266 L291,263 L289,262 L281,249 L278,243 L274,237 L273,234 L271,233 L267,226 L263,221 L262,218 L259,215 L261,211 L265,207 L266,204 L274,197 L279,192 L284,187 L289,182 L294,175 L302,168 L309,160 L313,157 L317,158 L323,166 L326,170 L332,178 L335,183 L335,185 L337,186 L344,196 L346,199 L346,202 L348,203 L351,208 L352,213 L354,214 L357,219 L367,238 L372,249 L374,254 L374,258 L376,259 L379,266 L383,276 L386,286 L389,294 L392,306 L395,315 L397,326 L397,332 L399,332 L403,360 L404,363 L404,369 L403,371 L405,371 L406,383 L406,446 L405,458 L404,459 L404,468 L403,469 L399,497 L397,497 L396,508 L394,517 L392,523 L388,538 L385,547 L378,566 L371,583 L367,591 L359,607 L352,620 L349,626 L347,627 L343,635 L336,646 L328,656 L327,659 L325,660 L322,665 L311,678 L310,681 L302,688 L299,693 L294,698 L289,703 L284,708 L279,712 L272,720 L263,727 L260,731 L255,734 L248,740 L245,740 L243,744 L239,746 L238,748 L231,752 L226,756 L223,757 L222,759 L215,763 L206,768 L198,773 L195,773 L195,775 L187,779 L184,779 L184,781 L171,787 L164,790 L161,790 L161,792 L147,797 L137,801 L133,801 L133,803 L115,808 L106,811 L97,813 L91,815 L68,819 L67,820 L39,823 L24,824 L-17,824 L-45,822 L-62,820 L-62,818 L-74,817 L-91,814 L-100,811 L-121,805 L-134,800 L-140,798 L-140,796 L-147,795 L-156,791 L-176,782 L-180,779 L-190,775 L-190,773 L-196,771 L-205,766 L-208,764 L-208,762 L-213,761 L-217,759 L-220,756 L-229,750 L-237,744 L-240,742 L-240,740 L-245,738 L-256,729 L-273,713 L-293,693 L-295,692 L-298,687 L-311,673 L-316,665 L-318,664 L-321,659 L-323,658 L-327,651 L-331,644 L-333,642 L-337,636 L-337,633 L-340,632 L-344,624 L-348,618 L-348,615 L-350,615 L-354,605 L-357,602 L-359,597 L-359,594 L-361,594 L-363,588 L-365,581 L-367,581 L-372,567 L-376,557 L-376,553 L-378,553 L-382,538 L-385,531 L-388,518 L-390,513 L-393,497 L-393,491 L-395,491 L-399,458 L-400,455 L-400,447 L-401,446 L-402,420 L-402,406 L-401,381 L-400,379 L-400,371 L-399,370 L-395,337 L-393,337 L-392,326 L-390,315 L-388,310 L-384,293 L-382,293 L-381,286 L-378,276 L-376,276 L-375,270 L-372,262 L-367,249 L-365,249 L-364,243 L-361,236 L-359,236 L-358,231 L-356,226 L-354,226 L-351,216 L-348,213 L-345,205 L-342,202 L-338,195 L-333,187 L-328,180 L-326,180 L-325,176 L-318,166 L-314,161 L-305,150 L-296,140 L-294,136 L-286,129 L-281,124 L-276,119 L-271,114 L-267,109 L-262,104 L-257,101 L-245,90 L-240,86 L-236,84 L-234,81 L-227,77 L-222,73 L-219,73 L-217,69 L-214,68 L-213,66 L-204,61 L-193,55 L-186,51 L-175,45 L-173,45 L-173,43 L-161,38 L-148,32 L-138,28 L-134,28 L-134,26 L-121,22 L-113,19 L-103,16 L-97,14 L-83,11 L-78,9 L-54,5 L-53,4 L-23,1 Z " fill="#F5F5F5" transform="translate(510,100)"/>
<path d="M0,0 L17,0 L26,3 L36,8 L41,12 L43,13 L46,18 L50,24 L51,29 L53,29 L56,40 L56,60 L53,71 L51,71 L50,76 L49,79 L46,81 L43,86 L37,91 L27,97 L20,99 L-2,99 L-15,95 L-16,93 L-21,90 L-21,88 L-25,87 L-32,79 L-33,74 L-35,74 L-38,65 L-38,60 L-40,60 L-40,40 L-38,34 L-35,26 L-31,19 L-27,15 L-25,12 L-21,10 L-20,8 L-7,2 Z " fill="#16B8F3" transform="translate(503,466)"/>
</svg>
